<svg width="100" height="13" viewBox="0 0 100 13" fill="none" xmlns="http://www.w3.org/2000/svg">
    <path d="M0 4.08163C0 1.82741 1.83156 0 4.09091 0H8.18182C10.4412 0 12.2727 1.82741 12.2727 4.08163V8.16327C12.2727 10.4175 10.4412 12.2449 8.18182 12.2449H4.09091C1.83156 12.2449 0 10.4175 0 8.16327V4.08163Z" fill="#4083FF"/>
    <path d="M6.25982 7.10794C6.2303 7.10794 6.20001 7.10402 6.1705 7.09463C5.07695 6.76968 4.31349 5.73924 4.31349 4.589V3.29391C4.31349 3.02377 4.09602 2.80453 3.82807 2.80453C3.56012 2.80453 3.34266 3.02377 3.34266 3.29391V5.22011C3.34266 5.39628 3.2013 5.53879 3.02655 5.53879C2.8518 5.53879 2.71045 5.39628 2.71045 5.22011V3.29391C2.71045 2.6722 3.21218 2.16638 3.82885 2.16638C4.44552 2.16638 4.94725 2.6722 4.94725 3.29391V4.58979C4.94725 5.45971 5.52432 6.23802 6.35069 6.48388C6.51845 6.53399 6.61398 6.71095 6.56505 6.88008C6.52311 7.01789 6.39651 7.10794 6.25982 7.10794Z" fill="white"/>
    <path d="M3.82787 10.063C3.2112 10.063 2.70947 9.55722 2.70947 8.93551V7.63963C2.70947 6.8441 3.06285 6.10181 3.67875 5.60225C3.81467 5.49184 4.01427 5.51377 4.12378 5.6508C4.23329 5.78782 4.21155 5.98905 4.07563 6.09946C3.60963 6.47687 3.34323 7.03828 3.34323 7.63963V8.93551C3.34323 9.20565 3.5607 9.42489 3.82865 9.42489C4.0966 9.42489 4.31407 9.20565 4.31407 8.93551V7.00853C4.31407 6.83235 4.45542 6.68985 4.63017 6.68985C4.80492 6.68985 4.94627 6.83235 4.94627 7.00853V8.93551C4.94627 9.55722 4.44455 10.063 3.82787 10.063Z" fill="white"/>
    <path d="M8.3765 10.063C7.75983 10.063 7.2581 9.55719 7.2581 8.93548V7.63961C7.2581 6.77047 6.68104 5.99138 5.85466 5.74551C5.6869 5.6954 5.59137 5.51844 5.64108 5.34931C5.69079 5.18018 5.86631 5.08387 6.03407 5.13399C7.12762 5.45893 7.89108 6.48937 7.89108 7.63961V8.93548C7.89108 9.20562 8.10855 9.42486 8.3765 9.42486C8.64445 9.42486 8.86192 9.20562 8.86192 8.93548V6.96309C8.86192 6.78691 9.00327 6.64441 9.17802 6.64441C9.35277 6.64441 9.49412 6.78691 9.49412 6.96309V8.93548C9.4949 9.55719 8.99317 10.063 8.3765 10.063Z" fill="white"/>
    <path d="M8.32777 6.69686C8.23535 6.69686 8.1437 6.65614 8.08079 6.57784C7.97128 6.44082 7.99303 6.23958 8.12895 6.12918C8.59417 5.75177 8.86134 5.19035 8.86134 4.589V3.29391C8.86134 3.02377 8.64388 2.80453 8.37593 2.80453C8.10798 2.80453 7.89051 3.02377 7.89051 3.29391V5.22011C7.89051 5.39628 7.74915 5.53879 7.5744 5.53879C7.39965 5.53879 7.2583 5.39628 7.2583 5.22011V3.29391C7.2583 2.6722 7.76003 2.16638 8.3767 2.16638C8.99338 2.16638 9.4951 2.6722 9.4951 3.29391V4.58979C9.4951 5.38532 9.14172 6.1284 8.52582 6.62717C8.46757 6.67337 8.39767 6.69686 8.32777 6.69686Z" fill="white"/>
    <g clip-path="url(#clip0_529_19226)">
        <path d="M21.733 4.03433C21.3698 3.72594 20.8422 3.57057 20.1593 3.57057C19.8464 3.57057 19.5495 3.62236 19.2846 3.72594C19.0196 3.82717 18.7752 3.96371 18.5583 4.13085C18.371 4.27209 18.2065 4.42511 18.0695 4.58754V1.79559C18.0672 1.52016 17.9781 1.2871 17.8023 1.09878C17.6241 0.910448 17.398 0.816284 17.1308 0.816284C16.8613 0.816284 16.6374 0.910448 16.4593 1.09878C16.2834 1.2871 16.1943 1.52016 16.1943 1.79559V10.5246C16.1943 10.8 16.2834 11.0354 16.4593 11.2214C16.6351 11.4097 16.8613 11.5039 17.1308 11.5039C17.398 11.5039 17.6241 11.4097 17.8023 11.2214C17.9781 11.0354 18.0672 10.8 18.0672 10.5246V6.90868C18.0672 6.61912 18.1243 6.35311 18.2408 6.12241C18.3527 5.89406 18.5263 5.70809 18.7524 5.5692C18.9808 5.43031 19.2594 5.35968 19.586 5.35968C19.9149 5.35968 20.1685 5.42795 20.3398 5.56213C20.5133 5.69867 20.6298 5.87523 20.6961 6.10358C20.7646 6.34134 20.8011 6.61206 20.8011 6.91103V10.5269C20.8011 10.8023 20.8902 11.0378 21.0661 11.2237C21.2419 11.4121 21.468 11.5062 21.7376 11.5062C22.0048 11.5062 22.2309 11.4121 22.409 11.2237C22.5849 11.0378 22.674 10.8023 22.674 10.5269V6.90868C22.674 6.30838 22.6078 5.75282 22.4776 5.26081C22.3428 4.75468 22.0916 4.34271 21.733 4.03433Z" fill="#081131"/>
        <path d="M29.7793 3.71191C29.5097 3.71191 29.2859 3.80608 29.1078 3.99441C28.9319 4.18038 28.8428 4.41579 28.8428 4.69122V8.27885C28.8428 8.8203 28.7286 9.22285 28.5025 9.47709C28.2787 9.72898 27.9292 9.8561 27.4633 9.8561C27.0065 9.8561 26.6593 9.72898 26.4378 9.47709C26.2117 9.22285 26.0975 8.8203 26.0975 8.27885V4.69122C26.0975 4.41579 26.0084 4.18273 25.8325 3.99441C25.6544 3.80608 25.4306 3.71191 25.161 3.71191C24.8915 3.71191 24.6677 3.80608 24.4896 3.99441C24.3137 4.18038 24.2246 4.41579 24.2246 4.69122V8.27885C24.2246 9.30288 24.5055 10.1292 25.0583 10.7318C25.611 11.3392 26.4218 11.6452 27.4633 11.6452C28.5048 11.6452 29.3179 11.3392 29.8752 10.7318C30.4325 10.1292 30.7157 9.30288 30.7157 8.27885V4.69122C30.7157 4.41579 30.6266 4.18273 30.4507 3.99441C30.2726 3.80843 30.0465 3.71191 29.7793 3.71191Z" fill="#081131"/>
        <path d="M42.4124 4.03431C42.0492 3.72593 41.5216 3.57056 40.8387 3.57056C40.4207 3.57056 40.0347 3.66237 39.6967 3.84599C39.3632 4.0249 39.0732 4.24618 38.8379 4.50513C38.6895 4.66756 38.5638 4.82529 38.4634 4.9783C38.3332 4.6605 38.1573 4.38272 37.9335 4.14966C37.5658 3.76595 36.9948 3.57056 36.2342 3.57056C35.9213 3.57056 35.6244 3.62235 35.3594 3.72593C35.0945 3.82715 34.8501 3.96369 34.6331 4.13083C34.4436 4.27443 34.2791 4.4298 34.1398 4.59223C34.1215 4.35918 34.0324 4.15908 33.8794 3.99429C33.7013 3.80597 33.4774 3.7118 33.2079 3.7118C32.9384 3.7118 32.7146 3.80597 32.5364 3.99429C32.3606 4.18027 32.2715 4.41568 32.2715 4.6911V10.5245C32.2715 10.8 32.3606 11.0354 32.5364 11.2214C32.7123 11.4097 32.9384 11.5038 33.2079 11.5038C33.4751 11.5038 33.7013 11.4097 33.8794 11.2214C34.0553 11.0354 34.1443 10.8 34.1443 10.5245V6.90866C34.1443 6.61911 34.2014 6.35309 34.3179 6.12239C34.4298 5.89405 34.6034 5.70807 34.8295 5.56918C35.0579 5.43029 35.3366 5.35967 35.6632 5.35967C35.9921 5.35967 36.2456 5.42794 36.4169 5.56212C36.5905 5.69866 36.707 5.87521 36.7732 6.10356C36.8417 6.34132 36.8783 6.61204 36.8783 6.91101V10.5269C36.8783 10.8023 36.9673 11.0377 37.1432 11.2237C37.3191 11.412 37.5452 11.5062 37.8147 11.5062C38.0819 11.5062 38.308 11.412 38.4862 11.2237C38.6621 11.0377 38.7511 10.8023 38.7511 10.5269V6.90866C38.7511 6.61911 38.8082 6.35309 38.9247 6.12239C39.0366 5.89405 39.2102 5.70807 39.4363 5.56918C39.6647 5.43029 39.9434 5.35967 40.27 5.35967C40.5989 5.35967 40.8524 5.42794 41.0237 5.56212C41.1973 5.69866 41.3138 5.87521 41.38 6.10356C41.4485 6.34132 41.4851 6.61204 41.4851 6.91101V10.5269C41.4851 10.8023 41.5741 11.0377 41.75 11.2237C41.9259 11.412 42.152 11.5062 42.4215 11.5062C42.6887 11.5062 42.9148 11.412 43.093 11.2237C43.2688 11.0377 43.3579 10.8023 43.3579 10.5269V6.90866C43.3579 6.30837 43.2917 5.75515 43.1615 5.2608C43.0222 4.75467 42.7709 4.3427 42.4124 4.03431Z" fill="#081131"/>
        <path d="M50.9518 3.57056C50.6845 3.57056 50.4584 3.66472 50.2803 3.85305C50.1547 3.98723 50.0724 4.1426 50.0382 4.33093C50.0039 4.30268 49.9674 4.27208 49.9308 4.24383C49.6796 4.04844 49.3827 3.88601 49.0446 3.76124C48.7043 3.63412 48.3275 3.57056 47.9232 3.57056C47.2928 3.57056 46.7081 3.74476 46.1897 4.09081C45.6735 4.43451 45.2555 4.91474 44.9518 5.51975C44.648 6.12239 44.4927 6.82862 44.4927 7.61489C44.4927 8.39409 44.6457 9.09326 44.9518 9.69591C45.2578 10.3009 45.6781 10.7811 46.2057 11.1248C46.7333 11.4685 47.3294 11.6451 47.9803 11.6451C48.3389 11.6451 48.6792 11.5839 48.9875 11.4615C49.2913 11.3414 49.5631 11.1908 49.7892 11.0142C49.8829 10.9412 49.9697 10.8682 50.0496 10.7929C50.0884 10.9553 50.1684 11.0989 50.2826 11.2214C50.4584 11.4097 50.6845 11.5039 50.9541 11.5039C51.2213 11.5039 51.4474 11.4097 51.6255 11.2214C51.8014 11.0354 51.8905 10.8 51.8905 10.5245V4.54986C51.8905 4.26501 51.8014 4.02725 51.6233 3.84599C51.4451 3.66237 51.219 3.57056 50.9518 3.57056ZM50.0839 7.61489C50.0839 8.03627 50.0016 8.4247 49.8418 8.76369C49.6819 9.10032 49.458 9.37104 49.1748 9.56408C48.8939 9.75711 48.5604 9.85599 48.1836 9.85599C47.8159 9.85599 47.487 9.75711 47.206 9.56408C46.9228 9.36869 46.699 9.10032 46.5391 8.76369C46.3792 8.4247 46.297 8.03863 46.297 7.61489C46.297 7.18174 46.3792 6.79096 46.5391 6.45197C46.699 6.11533 46.9228 5.84461 47.206 5.65158C47.487 5.45854 47.8159 5.35967 48.1836 5.35967C48.5604 5.35967 48.8939 5.45854 49.1748 5.65158C49.458 5.84697 49.6819 6.11533 49.8418 6.45197C50.0016 6.79096 50.0839 7.18409 50.0839 7.61489Z" fill="#081131"/>
        <path d="M59.0877 4.03431C58.7177 3.72593 58.1741 3.57056 57.4752 3.57056C57.1532 3.57056 56.8494 3.62235 56.5731 3.72593C56.299 3.82715 56.05 3.96369 55.8308 4.13083C55.6344 4.27914 55.4608 4.44157 55.31 4.60871C55.294 4.36859 55.205 4.16143 55.0474 3.99429C54.8692 3.80597 54.6454 3.7118 54.3759 3.7118C54.1087 3.7118 53.8825 3.80597 53.7044 3.99429C53.5285 4.18027 53.4395 4.41568 53.4395 4.6911V10.5245C53.4395 10.8 53.5285 11.0354 53.7044 11.2214C53.8803 11.4097 54.1064 11.5038 54.3759 11.5038C54.6431 11.5038 54.8692 11.4097 55.0474 11.2214C55.2232 11.0354 55.3123 10.8 55.3123 10.5245V6.90866C55.3123 6.61911 55.374 6.35545 55.4973 6.12475C55.6184 5.8964 55.7988 5.70807 56.0295 5.56918C56.2624 5.43029 56.5548 5.35967 56.8974 5.35967C57.2446 5.35967 57.5141 5.42794 57.6945 5.56212C57.8772 5.69866 58.0006 5.87521 58.0714 6.10356C58.1444 6.34132 58.1833 6.61204 58.1833 6.90866V10.5245C58.1833 10.8 58.2723 11.0354 58.4482 11.2214C58.6241 11.4097 58.8502 11.5038 59.1197 11.5038C59.3869 11.5038 59.613 11.4097 59.7912 11.2214C59.9671 11.0354 60.0561 10.8 60.0561 10.5245V6.90866C60.0561 6.30837 59.9876 5.7528 59.8529 5.25844C59.7135 4.75231 59.4577 4.34035 59.0877 4.03431Z" fill="#081131"/>
        <path d="M62.6963 0.816284C62.429 0.816284 62.2006 0.910448 62.0202 1.09878C61.8397 1.28475 61.7461 1.52016 61.7461 1.79559V10.5246C61.7461 10.8 61.8352 11.0354 62.011 11.2214C62.1869 11.4097 62.4085 11.5039 62.6688 11.5039C62.9361 11.5039 63.1645 11.4097 63.3449 11.2214C63.5254 11.0354 63.619 10.8 63.619 10.5246V1.79559C63.619 1.52016 63.5322 1.2871 63.3609 1.10113C63.1896 0.912802 62.9658 0.816284 62.6963 0.816284Z" fill="#081131"/>
        <path d="M66.1493 3.71191C65.8821 3.71191 65.656 3.80608 65.4778 3.99441C65.302 4.18038 65.2129 4.41579 65.2129 4.69122V10.5247C65.2129 10.8001 65.302 11.0355 65.4778 11.2215C65.6537 11.4098 65.8798 11.504 66.1493 11.504C66.4165 11.504 66.6427 11.4098 66.8208 11.2215C66.9967 11.0355 67.0858 10.8001 67.0858 10.5247V4.69122C67.0858 4.41579 66.9967 4.18273 66.8208 3.99441C66.6427 3.80843 66.4165 3.71191 66.1493 3.71191Z" fill="#081131"/>
        <path d="M66.1494 1.11292C65.8297 1.11292 65.5967 1.16706 65.4345 1.28241C65.2609 1.40482 65.1719 1.62375 65.1719 1.93685V2.20521C65.1719 2.50654 65.2518 2.72311 65.4071 2.84788C65.5579 2.97029 65.7954 3.02915 66.1357 3.02915C66.4737 3.02915 66.7158 2.97265 66.8734 2.85965C67.0402 2.73724 67.127 2.51831 67.127 2.20521V1.93685C67.127 1.63552 67.047 1.4213 66.8917 1.29418C66.741 1.17177 66.4989 1.11292 66.1494 1.11292Z" fill="#4083FF"/>
        <path d="M74.1893 4.03431C73.8193 3.72593 73.2757 3.57056 72.5768 3.57056C72.2548 3.57056 71.951 3.62235 71.6746 3.72593C71.4006 3.82715 71.1516 3.96369 70.9323 4.13083C70.7359 4.27914 70.5623 4.44157 70.4116 4.60871C70.3956 4.36859 70.3065 4.16143 70.1489 3.99429C69.9708 3.80597 69.747 3.7118 69.4774 3.7118C69.2102 3.7118 68.9841 3.80597 68.806 3.99429C68.6301 4.18027 68.541 4.41568 68.541 4.6911V10.5245C68.541 10.8 68.6301 11.0354 68.806 11.2214C68.9818 11.4097 69.2079 11.5039 69.4774 11.5039C69.7447 11.5039 69.9708 11.4097 70.1489 11.2214C70.3248 11.0354 70.4139 10.8 70.4139 10.5245V6.90866C70.4139 6.61911 70.4755 6.35545 70.5989 6.12475C70.7199 5.8964 70.9004 5.70807 71.1311 5.56918C71.364 5.43029 71.6564 5.35967 71.999 5.35967C72.3461 5.35967 72.6156 5.42794 72.7961 5.56212C72.9788 5.69866 73.1021 5.87521 73.1729 6.10356C73.246 6.34132 73.2848 6.61204 73.2848 6.90866V10.5245C73.2848 10.8 73.3739 11.0354 73.5498 11.2214C73.7257 11.4097 73.9518 11.5039 74.2213 11.5039C74.4885 11.5039 74.7146 11.4097 74.8928 11.2214C75.0686 11.0354 75.1577 10.8 75.1577 10.5245V6.90866C75.1577 6.30837 75.0892 5.7528 74.9544 5.25844C74.8151 4.75231 74.5593 4.34035 74.1893 4.03431Z" fill="#081131"/>
        <path d="M80.6893 7.22177L82.6695 5.3432C82.9139 5.12427 83.0373 4.87945 83.0373 4.61814C83.0373 4.4204 82.9482 4.21795 82.7746 4.01785C82.5965 3.81304 82.384 3.70946 82.1419 3.70946C81.8838 3.70946 81.6532 3.81069 81.459 4.01079L78.7205 6.73447V1.79559C78.7205 1.52016 78.6315 1.2871 78.4556 1.09878C78.2774 0.910448 78.0536 0.816284 77.7841 0.816284C77.5146 0.816284 77.2908 0.910448 77.1126 1.09878C76.9367 1.28475 76.8477 1.52016 76.8477 1.79559V10.5246C76.8477 10.8 76.9367 11.0354 77.1126 11.2214C77.2885 11.4097 77.5146 11.5039 77.7841 11.5039C78.0513 11.5039 78.2774 11.4097 78.4556 11.2214C78.6315 11.0354 78.7205 10.8 78.7205 10.5246V9.09092L79.2755 8.56596L81.66 11.1696C81.845 11.3838 82.078 11.4921 82.3475 11.4921C82.5553 11.4921 82.7677 11.405 82.9733 11.2331C83.188 11.0542 83.2976 10.8212 83.2976 10.541C83.2976 10.275 83.1994 10.0349 83.0076 9.8254L80.6893 7.22177Z" fill="#081131"/>
        <path d="M89.9393 4.71468C89.6104 4.36157 89.2267 4.07908 88.8019 3.87662C88.3725 3.67182 87.9111 3.56824 87.4315 3.56824C86.8125 3.56824 86.2164 3.73538 85.6614 4.06495C85.1064 4.39452 84.6519 4.87241 84.3116 5.48682C83.969 6.09889 83.7954 6.84984 83.7954 7.7138C83.7954 8.45533 83.9553 9.13096 84.2682 9.71948C84.5834 10.3104 85.0402 10.7859 85.6272 11.1272C86.2119 11.4709 86.9108 11.6451 87.7056 11.6451C88.1738 11.6451 88.6329 11.5651 89.0737 11.405C89.5145 11.2449 89.8639 11.0566 90.106 10.8424C90.3893 10.6117 90.5332 10.348 90.5332 10.0585C90.5332 9.83954 90.4555 9.64651 90.3025 9.48172C90.0398 9.20158 89.6401 9.14744 89.1993 9.37579C89.0965 9.43228 88.9823 9.50291 88.8567 9.5853C88.7425 9.65828 88.5895 9.72184 88.3999 9.77598C88.2103 9.83013 87.9477 9.85602 87.6211 9.85602C87.2762 9.85602 86.9473 9.76892 86.6412 9.59472C86.3375 9.42287 86.084 9.16627 85.8898 8.83199C85.803 8.68133 85.7345 8.50712 85.6843 8.31174H90.0604C90.307 8.31174 90.524 8.2317 90.709 8.07162C90.8986 7.90918 90.9991 7.69496 91.0105 7.4313C91.0105 6.9087 90.9123 6.40963 90.7204 5.94352C90.5309 5.48212 90.2659 5.06779 89.9393 4.71468ZM89.028 6.66387L85.6957 6.66387C85.7117 6.60031 85.7254 6.54381 85.7436 6.49438C85.8373 6.21188 85.9675 5.98354 86.1274 5.81875C86.2872 5.65396 86.4791 5.53626 86.6961 5.46564C87.1506 5.32204 87.717 5.30085 88.1806 5.53626C88.4159 5.65396 88.6146 5.81875 88.7722 6.01885C88.9229 6.21424 89.0097 6.43081 89.028 6.66387Z" fill="#081131"/>
        <path d="M96.8417 3.83892C96.6338 3.66237 96.3757 3.57056 96.0765 3.57056C95.839 3.57056 95.6015 3.60116 95.3639 3.65766C95.1264 3.71651 94.9003 3.80832 94.6902 3.93073C94.48 4.05315 94.2905 4.20852 94.1215 4.38978C94.0826 4.4298 94.0484 4.47453 94.0118 4.52161C93.9821 4.31916 93.8976 4.14025 93.7583 3.99429C93.5802 3.80597 93.3563 3.7118 93.0868 3.7118C92.8196 3.7118 92.5935 3.80597 92.4153 3.99429C92.2395 4.18027 92.1504 4.41568 92.1504 4.6911V10.5245C92.1504 10.8 92.2395 11.0354 92.4153 11.2214C92.5912 11.4097 92.8173 11.5039 93.0868 11.5039C93.354 11.5039 93.5802 11.4097 93.7583 11.2214C93.9342 11.0354 94.0233 10.8 94.0233 10.5245V7.17703C94.0233 6.85216 94.0644 6.56967 94.1466 6.33426C94.2288 6.09885 94.3362 5.90111 94.4686 5.74338C94.5988 5.58801 94.7427 5.47266 94.8957 5.39969C95.2201 5.24432 95.549 5.26786 95.7865 5.3785C95.9418 5.45148 96.1177 5.48914 96.3072 5.48914C96.5174 5.48914 96.7115 5.41146 96.8874 5.25609C97.0678 5.09601 97.1614 4.84177 97.1614 4.49572C97.166 4.24147 97.0564 4.02019 96.8417 3.83892Z" fill="#081131"/>
    </g>
    <defs>
        <clipPath id="clip0_529_19226">
            <rect width="80.9717" height="10.8288" fill="white" transform="translate(16.1943 0.816284)"/>
        </clipPath>
    </defs>
</svg>